<svg width="15" height="15" viewBox="0 0 15 15" fill="none" xmlns="http://www.w3.org/2000/svg">
<g clip-path="url(#clip0_329_1551)">
<g clip-path="url(#clip1_329_1551)">
<path d="M19 7L9 7L9 -3C9 -3.26522 8.89464 -3.51957 8.70711 -3.70711C8.51957 -3.89464 8.26522 -4 8 -4V-4C7.73478 -4 7.48043 -3.89464 7.29289 -3.70711C7.10536 -3.51957 7 -3.26522 7 -3L7 7L-3 7C-3.26522 7 -3.51957 7.10536 -3.70711 7.29289C-3.89464 7.48043 -4 7.73478 -4 8V8C-4 8.26522 -3.89464 8.51957 -3.70711 8.70711C-3.51957 8.89464 -3.26522 9 -3 9L7 9L7 19C7 19.2652 7.10536 19.5196 7.29289 19.7071C7.48043 19.8946 7.73478 20 8 20C8.26522 20 8.51957 19.8946 8.70711 19.7071C8.89464 19.5196 9 19.2652 9 19L9 9L19 9C19.2652 9 19.5196 8.89464 19.7071 8.70711C19.8946 8.51957 20 8.26522 20 8C20 7.73478 19.8946 7.48043 19.7071 7.29289C19.5196 7.10536 19.2652 7 19 7Z" fill="#1E334A"/>
</g>
</g>
<defs>
<clipPath id="clip0_329_1551">
<rect width="15" height="15" rx="7.5" fill="white"/>
</clipPath>
<clipPath id="clip1_329_1551">
<rect width="24" height="24" fill="white" transform="translate(-4 -4)"/>
</clipPath>
</defs>
</svg>
