<svg height="512" viewBox="0 0 64 64" width="512" xmlns="http://www.w3.org/2000/svg"><g id="Contract"><path d="m26 30h-11a1 1 0 0 1 0-2h11a1 1 0 0 1 0 2z"/><path d="m15 23h26a1 1 0 0 1 0 2h-26a1 1 0 0 1 0-2z"/><path d="m15 18h26a1 1 0 0 1 0 2h-26a1 1 0 0 1 0-2z"/><path d="m15 13h26a1 1 0 0 1 0 2h-26a1 1 0 0 1 0-2z"/><path d="m55.84 29.01-.68.69-.72-.72.63-.63a4.672 4.672 0 0 0 -6.07-7.07v-13.28a3.009 3.009 0 0 0 -3-3h-36a3.009 3.009 0 0 0 -3 3v48a3.009 3.009 0 0 0 3 3h36a3.009 3.009 0 0 0 3-3v-17.31l8.26-8.26a1 1 0 0 0 -1.42-1.42zm-8.84 8.85-1.17 1.17a.993.993 0 0 0 1.17 1.58v15.39a1 1 0 0 1 -1 1h-36a1 1 0 0 1 -1-1v-48a1 1 0 0 1 1-1h36a1 1 0 0 1 1 1v15.2c-4.2 4.2-18.72 18.72-18.73 18.74-.283.283-.488.428-.56.81-.024.1-1.36 6.186-1.36 6.29l-1.01 1.01a1 1 0 0 0 1.42 1.42l1.02-1.02c.155 0 6.133-1.315 6.28-1.35.455-.107.491-.221.82-.55l12.12-12.13zm-17.85 6.6 3.2 3.2c-3.306.733-1.412.317-4.09.89.553-2.587.34-1.609.89-4.09zm5.08 1.92-3.79-3.79c.31-.326 14.42-14.431 14.74-14.75l3.79 3.79c-.556.553-14.27 14.255-14.74 14.75zm14.77-10.52v-1.44c3.36-3.36 2.481-2.483 4.03-4.02l.72.71zm4.65-8.92c-1.676 1.676-.944.942-3.26 3.27h-.01l-3.77-3.78c.581-.595.016-.027 3.26-3.27a2.673 2.673 0 0 1 3.78 3.78z"/></g></svg>