<svg width="11" height="10" viewBox="0 0 11 10" fill="none" xmlns="http://www.w3.org/2000/svg">
<path fill-rule="evenodd" clip-rule="evenodd" d="M6.37354 9.2219H9.99974H6.37354Z" fill="#0188A4"/>
<path d="M6.37354 9.2219H9.99974" stroke="white" stroke-linecap="round" stroke-linejoin="round"/>
<path fill-rule="evenodd" clip-rule="evenodd" d="M5.88987 0.897386C6.27769 0.433895 6.97484 0.365931 7.44794 0.74586C7.4741 0.766472 8.31455 1.41937 8.31455 1.41937C8.83428 1.73356 8.99577 2.4015 8.67449 2.91123C8.65743 2.93853 3.9059 8.88202 3.9059 8.88202C3.74781 9.07922 3.50785 9.19565 3.25139 9.19844L1.43175 9.22128L1.02176 7.48597C0.964332 7.24197 1.02176 6.98571 1.17985 6.78851L5.88987 0.897386Z" fill="#0188A4" stroke="white" stroke-linecap="round" stroke-linejoin="round"/>
<path fill-rule="evenodd" clip-rule="evenodd" d="M5.00977 2L7.73582 4.09351L5.00977 2Z" fill="#0188A4"/>
<path d="M5.00977 2L7.73582 4.09351" stroke="white" stroke-linecap="round" stroke-linejoin="round"/>
</svg>
