<svg width="30" height="20" viewBox="0 0 30 20" fill="none" xmlns="http://www.w3.org/2000/svg">
<mask id="mask0_465_1571" style="mask-type:luminance" maskUnits="userSpaceOnUse" x="0" y="0" width="30" height="20">
<rect width="30" height="20" rx="3" fill="white"/>
</mask>
<g mask="url(#mask0_465_1571)">
<path fill-rule="evenodd" clip-rule="evenodd" d="M0 3C0 1.34315 1.34315 0 3 0H27C28.6569 0 30 1.34315 30 3V17C30 18.6569 28.6569 20 27 20H3C1.34315 20 0 18.6569 0 17V3Z" fill="#F7FCFF"/>
<path fill-rule="evenodd" clip-rule="evenodd" d="M0.833334 12.2236C0.373096 12.2236 0 12.5967 0 13.057C0 13.5172 0.373096 13.8903 0.833333 13.8903H29.1667C29.6269 13.8903 30 13.5172 30 13.057C30 12.5967 29.6269 12.2236 29.1667 12.2236H0.833334Z" fill="#E31D1C"/>
<path fill-rule="evenodd" clip-rule="evenodd" d="M0.833334 15.2764C0.373096 15.2764 0 15.6495 0 16.1097C0 16.5699 0.373096 16.943 0.833333 16.943H29.1667C29.6269 16.943 30 16.5699 30 16.1097C30 15.6495 29.6269 15.2764 29.1667 15.2764H0.833334Z" fill="#E31D1C"/>
<path fill-rule="evenodd" clip-rule="evenodd" d="M0.833334 6.11133C0.373096 6.11133 0 6.48442 0 6.94466C0 7.4049 0.373096 7.77799 0.833333 7.77799H29.1667C29.6269 7.77799 30 7.4049 30 6.94466C30 6.48442 29.6269 6.11133 29.1667 6.11133H0.833334Z" fill="#E31D1C"/>
<path fill-rule="evenodd" clip-rule="evenodd" d="M0.833334 18.333C0.373096 18.333 0 18.7061 0 19.1663C0 19.6266 0.373096 19.9997 0.833333 19.9997H29.1667C29.6269 19.9997 30 19.6266 30 19.1663C30 18.7061 29.6269 18.333 29.1667 18.333H0.833334Z" fill="#E31D1C"/>
<path fill-rule="evenodd" clip-rule="evenodd" d="M0.833334 9.16699C0.373096 9.16699 0 9.54009 0 10.0003C0 10.4606 0.373096 10.8337 0.833333 10.8337H29.1667C29.6269 10.8337 30 10.4606 30 10.0003C30 9.54009 29.6269 9.16699 29.1667 9.16699H0.833334Z" fill="#E31D1C"/>
<path fill-rule="evenodd" clip-rule="evenodd" d="M0.833334 0C0.373096 0 0 0.373096 0 0.833333C0 1.29357 0.373096 1.66667 0.833333 1.66667H29.1667C29.6269 1.66667 30 1.29357 30 0.833333C30 0.373096 29.6269 0 29.1667 0H0.833334Z" fill="#E31D1C"/>
<path fill-rule="evenodd" clip-rule="evenodd" d="M0.833334 3.05664C0.373096 3.05664 0 3.42974 0 3.88997C0 4.35021 0.373096 4.72331 0.833333 4.72331H29.1667C29.6269 4.72331 30 4.35021 30 3.88997C30 3.42974 29.6269 3.05664 29.1667 3.05664H0.833334Z" fill="#E31D1C"/>
<rect width="18.75" height="10.8333" rx="3" fill="#2E42A5"/>
<path fill-rule="evenodd" clip-rule="evenodd" d="M1.74352 2.53001C1.66481 2.47932 1.56393 2.47857 1.48447 2.52808L1.4672 2.53885C1.28239 2.65401 1.05362 2.47846 1.11703 2.27015L1.12082 2.25772C1.14677 2.17246 1.11787 2.08001 1.04798 2.02471C0.886913 1.89726 0.977035 1.63812 1.18243 1.63812H1.20176C1.29103 1.63812 1.37173 1.58498 1.40699 1.50296L1.41111 1.49338C1.49135 1.30672 1.75305 1.29875 1.84451 1.48018L1.86606 1.52292C1.90167 1.59356 1.97403 1.63812 2.05314 1.63812C2.2449 1.63812 2.3359 1.87439 2.19368 2.00302L2.16938 2.02499C2.10739 2.08106 2.08212 2.1672 2.10401 2.24788L2.10815 2.26318C2.1662 2.47715 1.92991 2.65006 1.74352 2.53001ZM5.49254 2.53001C5.41384 2.47932 5.31295 2.47857 5.23349 2.52808L5.21622 2.53885C5.03142 2.65401 4.80264 2.47846 4.86606 2.27015L4.86984 2.25772C4.89579 2.17246 4.8669 2.08001 4.79701 2.02471C4.63594 1.89726 4.72606 1.63812 4.93145 1.63812H4.95078C5.04005 1.63812 5.12075 1.58498 5.15601 1.50296L5.16013 1.49338C5.24038 1.30672 5.50207 1.29875 5.59353 1.48018L5.61508 1.52292C5.65069 1.59356 5.72305 1.63812 5.80216 1.63812C5.99392 1.63812 6.08492 1.87439 5.9427 2.00302L5.91841 2.02499C5.85641 2.08107 5.83114 2.1672 5.85303 2.24788L5.85718 2.26318C5.91522 2.47715 5.67894 2.65006 5.49254 2.53001ZM8.61703 2.27015C8.55362 2.47846 8.78239 2.65401 8.9672 2.53885L8.98447 2.52808C9.06393 2.47857 9.16481 2.47932 9.24352 2.53001C9.42991 2.65006 9.6662 2.47715 9.60815 2.26318L9.604 2.24788C9.58212 2.1672 9.60738 2.08106 9.66938 2.02499L9.69368 2.00302C9.8359 1.87439 9.7449 1.63812 9.55314 1.63812C9.47403 1.63812 9.40167 1.59356 9.36606 1.52292L9.34451 1.48018C9.25305 1.29875 8.99135 1.30672 8.91111 1.49338L8.90699 1.50296C8.87173 1.58498 8.79103 1.63812 8.70176 1.63812H8.68243C8.47704 1.63812 8.38691 1.89726 8.54798 2.02471C8.61787 2.08001 8.64677 2.17246 8.62081 2.25772L8.61703 2.27015ZM12.9925 2.53001C12.9138 2.47932 12.8129 2.47857 12.7335 2.52808L12.7162 2.53885C12.5314 2.65401 12.3026 2.47846 12.3661 2.27015L12.3698 2.25772C12.3958 2.17246 12.3669 2.08001 12.297 2.02471C12.1359 1.89726 12.2261 1.63812 12.4315 1.63812H12.4508C12.5401 1.63812 12.6208 1.58498 12.656 1.50296L12.6601 1.49338C12.7404 1.30672 13.0021 1.29875 13.0935 1.48018L13.1151 1.52292C13.1507 1.59356 13.2231 1.63812 13.3022 1.63812C13.4939 1.63812 13.5849 1.87439 13.4427 2.00302L13.4184 2.02499C13.3564 2.08106 13.3311 2.1672 13.353 2.24788L13.3572 2.26318C13.4152 2.47715 13.1789 2.65006 12.9925 2.53001ZM1.11703 5.60284C1.05362 5.81115 1.28239 5.98671 1.4672 5.87155L1.48447 5.86078C1.56393 5.81127 1.66481 5.81202 1.74352 5.86271C1.92991 5.98276 2.1662 5.80985 2.10815 5.59587L2.10401 5.58058C2.08212 5.4999 2.10739 5.41376 2.16938 5.35769L2.19368 5.33572C2.3359 5.20709 2.2449 4.97082 2.05314 4.97082C1.97403 4.97082 1.90167 4.92626 1.86606 4.85562L1.84451 4.81288C1.75305 4.63145 1.49135 4.63942 1.41111 4.82608L1.40699 4.83566C1.37173 4.91767 1.29103 4.97082 1.20176 4.97082H1.18243C0.977035 4.97082 0.886913 5.22996 1.04798 5.35741C1.11787 5.41271 1.14677 5.50516 1.12082 5.59042L1.11703 5.60284ZM5.49254 5.86271C5.41384 5.81202 5.31295 5.81127 5.23349 5.86078L5.21622 5.87155C5.03142 5.98671 4.80264 5.81115 4.86606 5.60284L4.86984 5.59042C4.89579 5.50516 4.8669 5.41271 4.79701 5.35741C4.63594 5.22996 4.72606 4.97082 4.93145 4.97082H4.95078C5.04005 4.97082 5.12075 4.91767 5.15601 4.83566L5.16013 4.82608C5.24038 4.63942 5.50207 4.63145 5.59353 4.81288L5.61508 4.85562C5.65069 4.92626 5.72305 4.97082 5.80216 4.97082C5.99392 4.97082 6.08492 5.20709 5.9427 5.33572L5.91841 5.35769C5.85641 5.41376 5.83114 5.4999 5.85303 5.58058L5.85718 5.59587C5.91522 5.80985 5.67894 5.98276 5.49254 5.86271ZM8.61703 5.60284C8.55362 5.81115 8.78239 5.98671 8.9672 5.87155L8.98447 5.86078C9.06393 5.81127 9.16481 5.81202 9.24352 5.86271C9.42991 5.98276 9.6662 5.80985 9.60815 5.59587L9.604 5.58058C9.58212 5.4999 9.60738 5.41376 9.66938 5.35769L9.69368 5.33572C9.8359 5.20709 9.7449 4.97082 9.55314 4.97082C9.47403 4.97082 9.40167 4.92626 9.36606 4.85562L9.34451 4.81288C9.25305 4.63145 8.99135 4.63942 8.91111 4.82608L8.90699 4.83566C8.87173 4.91767 8.79103 4.97082 8.70176 4.97082H8.68243C8.47704 4.97082 8.38691 5.22996 8.54798 5.35741C8.61787 5.41271 8.64677 5.50516 8.62081 5.59042L8.61703 5.60284ZM12.9925 5.86271C12.9138 5.81202 12.8129 5.81127 12.7335 5.86078L12.7162 5.87155C12.5314 5.98671 12.3026 5.81115 12.3661 5.60284L12.3698 5.59042C12.3958 5.50516 12.3669 5.41271 12.297 5.35741C12.1359 5.22996 12.2261 4.97082 12.4315 4.97082H12.4508C12.5401 4.97082 12.6208 4.91767 12.656 4.83566L12.6601 4.82608C12.7404 4.63942 13.0021 4.63145 13.0935 4.81288L13.1151 4.85562C13.1507 4.92626 13.2231 4.97082 13.3022 4.97082C13.4939 4.97082 13.5849 5.20709 13.4427 5.33572L13.4184 5.35769C13.3564 5.41376 13.3311 5.4999 13.353 5.58058L13.3572 5.59587C13.4152 5.80985 13.1789 5.98276 12.9925 5.86271ZM1.11703 8.93745C1.05362 9.14576 1.28239 9.32131 1.4672 9.20615L1.48447 9.19539C1.56393 9.14587 1.66481 9.14662 1.74352 9.19732C1.92991 9.31736 2.1662 9.14445 2.10815 8.93048L2.10401 8.91518C2.08212 8.8345 2.10739 8.74837 2.16938 8.69229L2.19368 8.67032C2.3359 8.54169 2.2449 8.30543 2.05314 8.30543C1.97403 8.30543 1.90167 8.26087 1.86606 8.19023L1.84451 8.14748C1.75305 7.96605 1.49135 7.97402 1.41111 8.16068L1.40699 8.17026C1.37173 8.25228 1.29103 8.30543 1.20176 8.30543H1.18243C0.977035 8.30543 0.886913 8.56456 1.04798 8.69201C1.11787 8.74731 1.14677 8.83977 1.12082 8.92502L1.11703 8.93745ZM5.49254 9.19732C5.41384 9.14662 5.31295 9.14587 5.23349 9.19539L5.21622 9.20615C5.03142 9.32131 4.80264 9.14576 4.86606 8.93745L4.86984 8.92502C4.89579 8.83977 4.8669 8.74731 4.79701 8.69201C4.63594 8.56456 4.72606 8.30543 4.93145 8.30543H4.95078C5.04005 8.30543 5.12075 8.25228 5.15601 8.17026L5.16013 8.16068C5.24038 7.97402 5.50207 7.96605 5.59353 8.14748L5.61508 8.19023C5.65069 8.26087 5.72305 8.30543 5.80216 8.30543C5.99392 8.30543 6.08492 8.54169 5.9427 8.67032L5.91841 8.69229C5.85641 8.74837 5.83114 8.8345 5.85303 8.91518L5.85718 8.93048C5.91522 9.14445 5.67894 9.31736 5.49254 9.19732ZM8.61703 8.93745C8.55362 9.14576 8.78239 9.32131 8.9672 9.20615L8.98447 9.19539C9.06393 9.14587 9.16481 9.14662 9.24352 9.19732C9.42991 9.31736 9.6662 9.14445 9.60815 8.93048L9.604 8.91518C9.58212 8.8345 9.60738 8.74837 9.66938 8.69229L9.69368 8.67032C9.8359 8.54169 9.7449 8.30543 9.55314 8.30543C9.47403 8.30543 9.40167 8.26087 9.36606 8.19023L9.34451 8.14748C9.25305 7.96605 8.99135 7.97402 8.91111 8.16068L8.90699 8.17026C8.87173 8.25228 8.79103 8.30543 8.70176 8.30543H8.68243C8.47704 8.30543 8.38691 8.56456 8.54798 8.69201C8.61787 8.74731 8.64677 8.83977 8.62081 8.92502L8.61703 8.93745ZM12.9925 9.19732C12.9138 9.14662 12.8129 9.14587 12.7335 9.19539L12.7162 9.20615C12.5314 9.32131 12.3026 9.14576 12.3661 8.93745L12.3698 8.92502C12.3958 8.83977 12.3669 8.74731 12.297 8.69201C12.1359 8.56456 12.2261 8.30543 12.4315 8.30543H12.4508C12.5401 8.30543 12.6208 8.25228 12.656 8.17026L12.6601 8.16068C12.7404 7.97402 13.0021 7.96605 13.0935 8.14748L13.1151 8.19023C13.1507 8.26087 13.2231 8.30543 13.3022 8.30543C13.4939 8.30543 13.5849 8.54169 13.4427 8.67032L13.4184 8.69229C13.3564 8.74837 13.3311 8.8345 13.353 8.91518L13.3572 8.93048C13.4152 9.14445 13.1789 9.31736 12.9925 9.19732ZM16.117 2.27015C16.0536 2.47846 16.2824 2.65401 16.4672 2.53885L16.4845 2.52808C16.5639 2.47857 16.6648 2.47932 16.7435 2.53001C16.9299 2.65006 17.1662 2.47715 17.1082 2.26318L17.104 2.24788C17.0821 2.1672 17.1074 2.08106 17.1694 2.02499L17.1937 2.00302C17.3359 1.87439 17.2449 1.63812 17.0531 1.63812C16.974 1.63812 16.9017 1.59356 16.8661 1.52292L16.8445 1.48018C16.753 1.29875 16.4914 1.30672 16.4111 1.49338L16.407 1.50296C16.3717 1.58498 16.291 1.63812 16.2018 1.63812H16.1824C15.977 1.63812 15.8869 1.89726 16.048 2.02471C16.1179 2.08001 16.1468 2.17246 16.1208 2.25772L16.117 2.27015ZM16.7435 5.86271C16.6648 5.81202 16.5639 5.81127 16.4845 5.86078L16.4672 5.87155C16.2824 5.98671 16.0536 5.81115 16.117 5.60284L16.1208 5.59042C16.1468 5.50516 16.1179 5.41271 16.048 5.35741C15.8869 5.22996 15.977 4.97082 16.1824 4.97082H16.2018C16.291 4.97082 16.3717 4.91767 16.407 4.83566L16.4111 4.82608C16.4914 4.63942 16.753 4.63145 16.8445 4.81288L16.8661 4.85562C16.9017 4.92626 16.974 4.97082 17.0531 4.97082C17.2449 4.97082 17.3359 5.20709 17.1937 5.33572L17.1694 5.35769C17.1074 5.41376 17.0821 5.4999 17.104 5.58058L17.1082 5.59587C17.1662 5.80985 16.9299 5.98276 16.7435 5.86271ZM16.117 8.93745C16.0536 9.14576 16.2824 9.32131 16.4672 9.20615L16.4845 9.19539C16.5639 9.14587 16.6648 9.14662 16.7435 9.19732C16.9299 9.31736 17.1662 9.14445 17.1082 8.93048L17.104 8.91518C17.0821 8.8345 17.1074 8.74837 17.1694 8.69229L17.1937 8.67032C17.3359 8.54169 17.2449 8.30543 17.0531 8.30543C16.974 8.30543 16.9017 8.26087 16.8661 8.19023L16.8445 8.14748C16.753 7.96605 16.4914 7.97402 16.4111 8.16068L16.407 8.17026C16.3717 8.25228 16.291 8.30543 16.2018 8.30543H16.1824C15.977 8.30543 15.8869 8.56456 16.048 8.69201C16.1179 8.74731 16.1468 8.83977 16.1208 8.92502L16.117 8.93745ZM3.61754 4.19732C3.53884 4.14662 3.43795 4.14587 3.35849 4.19539L3.34122 4.20615C3.15642 4.32131 2.92764 4.14576 2.99106 3.93745L2.99484 3.92502C3.02079 3.83977 2.9919 3.74731 2.92201 3.69201C2.76094 3.56456 2.85106 3.30543 3.05645 3.30543H3.07578C3.16505 3.30543 3.24575 3.25228 3.28101 3.17026L3.28513 3.16068C3.36538 2.97402 3.62707 2.96605 3.71853 3.14748L3.74008 3.19023C3.77569 3.26087 3.84805 3.30543 3.92716 3.30543C4.11892 3.30543 4.20992 3.54169 4.0677 3.67032L4.04341 3.69229C3.98141 3.74837 3.95614 3.8345 3.97803 3.91518L3.98218 3.93048C4.04022 4.14445 3.80394 4.31736 3.61754 4.19732ZM6.74203 3.93745C6.67862 4.14576 6.90739 4.32131 7.0922 4.20615L7.10947 4.19539C7.18893 4.14587 7.28981 4.14662 7.36852 4.19732C7.55491 4.31736 7.7912 4.14445 7.73315 3.93048L7.72901 3.91518C7.70712 3.8345 7.73239 3.74837 7.79438 3.69229L7.81868 3.67032C7.9609 3.54169 7.8699 3.30543 7.67814 3.30543C7.59903 3.30543 7.52667 3.26087 7.49106 3.19023L7.46951 3.14748C7.37805 2.96605 7.11635 2.97402 7.03611 3.16068L7.03199 3.17026C6.99673 3.25228 6.91603 3.30543 6.82676 3.30543H6.80743C6.60204 3.30543 6.51191 3.56456 6.67298 3.69201C6.74287 3.74731 6.77177 3.83977 6.74581 3.92502L6.74203 3.93745ZM11.1175 4.19732C11.0388 4.14662 10.9379 4.14587 10.8585 4.19538L10.8412 4.20615C10.6564 4.32131 10.4276 4.14576 10.4911 3.93745L10.4948 3.92502C10.5208 3.83977 10.4919 3.74731 10.422 3.69201C10.2609 3.56456 10.3511 3.30543 10.5565 3.30543H10.5758C10.6651 3.30543 10.7458 3.25228 10.781 3.17026L10.7851 3.16068C10.8654 2.97402 11.1271 2.96605 11.2185 3.14748L11.2401 3.19023C11.2757 3.26087 11.3481 3.30543 11.4272 3.30543C11.6189 3.30543 11.7099 3.54169 11.5677 3.67032L11.5434 3.69229C11.4814 3.74837 11.4561 3.8345 11.478 3.91518L11.4822 3.93048C11.5402 4.14445 11.3039 4.31736 11.1175 4.19732ZM2.99106 7.27015C2.92764 7.47846 3.15642 7.65401 3.34122 7.53885L3.35849 7.52808C3.43795 7.47857 3.53884 7.47932 3.61754 7.53001C3.80394 7.65006 4.04022 7.47715 3.98218 7.26318L3.97803 7.24788C3.95614 7.1672 3.98141 7.08106 4.04341 7.02499L4.0677 7.00302C4.20992 6.87439 4.11892 6.63812 3.92716 6.63812C3.84805 6.63812 3.77569 6.59356 3.74008 6.52292L3.71853 6.48018C3.62707 6.29875 3.36538 6.30672 3.28513 6.49338L3.28101 6.50296C3.24575 6.58498 3.16505 6.63812 3.07578 6.63812H3.05645C2.85106 6.63812 2.76094 6.89726 2.92201 7.02471C2.9919 7.08001 3.02079 7.17246 2.99484 7.25772L2.99106 7.27015ZM7.36852 7.53001C7.28981 7.47932 7.18893 7.47857 7.10947 7.52808L7.0922 7.53885C6.90739 7.65401 6.67862 7.47846 6.74203 7.27015L6.74581 7.25772C6.77177 7.17246 6.74287 7.08001 6.67298 7.02471C6.51191 6.89726 6.60203 6.63812 6.80743 6.63812H6.82676C6.91603 6.63812 6.99673 6.58498 7.03199 6.50296L7.03611 6.49338C7.11635 6.30672 7.37805 6.29875 7.46951 6.48018L7.49106 6.52292C7.52667 6.59356 7.59903 6.63812 7.67814 6.63812C7.8699 6.63812 7.9609 6.87439 7.81868 7.00302L7.79438 7.02499C7.73239 7.08106 7.70712 7.1672 7.72901 7.24788L7.73315 7.26318C7.7912 7.47715 7.55491 7.65006 7.36852 7.53001ZM10.4911 7.27015C10.4276 7.47846 10.6564 7.65401 10.8412 7.53885L10.8585 7.52808C10.9379 7.47857 11.0388 7.47932 11.1175 7.53001C11.3039 7.65006 11.5402 7.47715 11.4822 7.26318L11.478 7.24788C11.4561 7.1672 11.4814 7.08106 11.5434 7.02499L11.5677 7.00302C11.7099 6.87439 11.6189 6.63812 11.4272 6.63812C11.3481 6.63812 11.2757 6.59356 11.2401 6.52292L11.2185 6.48018C11.1271 6.29875 10.8654 6.30672 10.7851 6.49338L10.781 6.50296C10.7458 6.58498 10.6651 6.63812 10.5758 6.63812H10.5565C10.3511 6.63812 10.2609 6.89726 10.422 7.02471C10.4919 7.08001 10.5208 7.17246 10.4948 7.25772L10.4911 7.27015ZM14.8685 4.19732C14.7898 4.14662 14.6889 4.14587 14.6095 4.19538L14.5922 4.20615C14.4074 4.32131 14.1786 4.14576 14.242 3.93745L14.2458 3.92502C14.2718 3.83977 14.2429 3.74731 14.173 3.69201C14.0119 3.56456 14.102 3.30543 14.3074 3.30543H14.3268C14.416 3.30543 14.4967 3.25228 14.532 3.17026L14.5361 3.16068C14.6164 2.97402 14.878 2.96605 14.9695 3.14748L14.9911 3.19023C15.0267 3.26087 15.099 3.30543 15.1781 3.30543C15.3699 3.30543 15.4609 3.54169 15.3187 3.67032L15.2944 3.69229C15.2324 3.74837 15.2071 3.8345 15.229 3.91518L15.2332 3.93048C15.2912 4.14445 15.0549 4.31736 14.8685 4.19732ZM14.242 7.27015C14.1786 7.47846 14.4074 7.65401 14.5922 7.53885L14.6095 7.52808C14.6889 7.47857 14.7898 7.47932 14.8685 7.53001C15.0549 7.65006 15.2912 7.47715 15.2332 7.26318L15.229 7.24788C15.2071 7.1672 15.2324 7.08106 15.2944 7.02499L15.3187 7.00302C15.4609 6.87439 15.3699 6.63812 15.1781 6.63812C15.099 6.63812 15.0267 6.59356 14.9911 6.52292L14.9695 6.48018C14.878 6.29875 14.6164 6.30672 14.5361 6.49338L14.532 6.50296C14.4967 6.58498 14.416 6.63812 14.3268 6.63812H14.3074C14.102 6.63812 14.0119 6.89726 14.173 7.02471C14.2429 7.08001 14.2718 7.17246 14.2458 7.25772L14.242 7.27015Z" fill="#F7FCFF"/>
</g>
</svg>
