<svg width="80" height="82" viewBox="0 0 80 82" fill="none" xmlns="http://www.w3.org/2000/svg">
<ellipse cx="40" cy="40.7595" rx="40" ry="40.7595" fill="url(#paint0_linear_298_4523)"/>
<g clip-path="url(#clip0_298_4523)">
<path d="M51.7073 28.8315C51.5197 28.6405 51.2654 28.5332 51.0003 28.5332C50.7351 28.5332 50.4808 28.6405 50.2933 28.8315L40.0003 39.32L29.7073 28.8315C29.5197 28.6405 29.2654 28.5332 29.0003 28.5332C28.7351 28.5332 28.4808 28.6405 28.2933 28.8315C28.1058 29.0226 28.0005 29.2818 28.0005 29.552C28.0005 29.8222 28.1058 30.0813 28.2933 30.2724L38.5863 40.7608L28.2933 51.2493C28.1058 51.4404 28.0005 51.6995 28.0005 51.9697C28.0005 52.2399 28.1058 52.499 28.2933 52.6901C28.4808 52.8812 28.7351 52.9885 29.0003 52.9885C29.2654 52.9885 29.5197 52.8812 29.7073 52.6901L40.0003 42.2017L50.2933 52.6901C50.4808 52.8812 50.7351 52.9885 51.0003 52.9885C51.2654 52.9885 51.5197 52.8812 51.7073 52.6901C51.8947 52.499 52.0001 52.2399 52.0001 51.9697C52.0001 51.6995 51.8947 51.4404 51.7073 51.2493L41.4143 40.7608L51.7073 30.2724C51.8947 30.0813 52.0001 29.8222 52.0001 29.552C52.0001 29.2818 51.8947 29.0226 51.7073 28.8315Z" fill="white"/>
</g>
<defs>
<linearGradient id="paint0_linear_298_4523" x1="80" y1="49.4209" x2="3.2265" y2="24.799" gradientUnits="userSpaceOnUse">
<stop stop-color="#D32F2F" stop-opacity="0.61"/>
<stop offset="1" stop-color="#D32F2F"/>
</linearGradient>
<clipPath id="clip0_298_4523">
<rect x="28" y="28.5332" width="24" height="24.4557" rx="12" fill="white"/>
</clipPath>
</defs>
</svg>
