<svg width="13" height="14" viewBox="0 0 13 14" fill="none" xmlns="http://www.w3.org/2000/svg">
<path fill-rule="evenodd" clip-rule="evenodd" d="M9.2568 1.23039L9.25742 1.6989C10.9791 1.83383 12.1164 3.007 12.1182 4.80609L12.125 10.0722C12.1275 12.0337 10.8951 13.2406 8.91988 13.2437L4.09493 13.25C2.132 13.2525 0.88426 12.0169 0.881792 10.0497L0.875004 4.84545C0.872536 3.03448 1.9697 1.86444 3.69136 1.7064L3.69074 1.23788C3.69012 0.96302 3.89376 0.756248 4.16527 0.756248C4.43679 0.755624 4.64043 0.96177 4.64104 1.23663L4.64166 1.67391L8.30712 1.66892L8.3065 1.23164C8.30588 0.956773 8.50952 0.750626 8.78103 0.750001C9.04638 0.749377 9.25618 0.955523 9.2568 1.23039ZM1.82592 5.03848L11.1685 5.02598V4.80734C11.142 3.46427 10.4681 2.75962 9.25865 2.65467L9.25927 3.13568C9.25927 3.4043 9.05008 3.61731 8.78473 3.61731C8.51322 3.61794 8.30896 3.40555 8.30896 3.13693L8.30835 2.63093L4.64289 2.63593L4.64351 3.1413C4.64351 3.41054 4.44049 3.62294 4.16897 3.62294C3.89746 3.62356 3.69321 3.41179 3.69321 3.14255L3.69259 2.66154C2.48928 2.78211 1.82345 3.48925 1.8253 4.8442L1.82592 5.03848ZM8.52494 7.87768V7.88455C8.53111 8.17191 8.7656 8.38992 9.05008 8.38368C9.32776 8.37681 9.54929 8.1388 9.54312 7.85144C9.53016 7.57658 9.3074 7.35232 9.03033 7.35294C8.74647 7.35919 8.52432 7.59033 8.52494 7.87768ZM9.03465 10.6825C8.75079 10.6763 8.52186 10.4395 8.52124 10.1522C8.51507 9.86481 8.74277 9.62681 9.02663 9.61993H9.0328C9.32283 9.61993 9.55793 9.85669 9.55793 10.1503C9.55855 10.4439 9.32406 10.6819 9.03465 10.6825ZM5.98257 7.88768C5.99491 8.17503 6.23002 8.39929 6.51388 8.3868C6.79156 8.37368 7.0131 8.1363 7.00075 7.84895C6.99397 7.56784 6.76565 7.3492 6.48796 7.34982C6.2041 7.36231 5.98195 7.60032 5.98257 7.88768ZM6.51635 10.6544C6.23249 10.6669 5.998 10.4426 5.98504 10.1553C5.98504 9.86793 6.20657 9.63055 6.49043 9.61744C6.76812 9.61681 6.99705 9.83545 7.00322 10.1159C7.01618 10.4039 6.79403 10.6413 6.51635 10.6544ZM3.4402 7.90954C3.45254 8.1969 3.68765 8.42178 3.97151 8.40866C4.24919 8.39617 4.47073 8.15817 4.45777 7.87081C4.4516 7.5897 4.22328 7.37106 3.94497 7.37168C3.66112 7.38418 3.43959 7.62218 3.4402 7.90954ZM3.97398 10.6575C3.69012 10.6707 3.45563 10.4458 3.44267 10.1584C3.44205 9.87106 3.6642 9.63305 3.94806 9.62056C4.22575 9.61993 4.45468 9.83857 4.46085 10.1197C4.47381 10.407 4.25228 10.645 3.97398 10.6575Z" fill="#0188A4"/>
</svg>
