<svg width="16" height="16" viewBox="0 0 16 16" fill="none" xmlns="http://www.w3.org/2000/svg">
<path d="M6.67172 12.6099L1.00049 12.6099" stroke="#1E334A" stroke-width="1.5" stroke-linecap="round" stroke-linejoin="round"/>
<path fill-rule="evenodd" clip-rule="evenodd" d="M10.2305 12.6083C10.2305 14.4023 10.8271 14.9998 12.6153 14.9998C14.4035 14.9998 15.0001 14.4023 15.0001 12.6083C15.0001 10.8143 14.4035 10.2168 12.6153 10.2168C10.8271 10.2168 10.2305 10.8143 10.2305 12.6083Z" stroke="#1E334A" stroke-width="1.5" stroke-linecap="round" stroke-linejoin="round"/>
<path d="M9.32861 3.39308L14.9991 3.39308" stroke="#1E334A" stroke-width="1.5" stroke-linecap="round" stroke-linejoin="round"/>
<path fill-rule="evenodd" clip-rule="evenodd" d="M5.77045 3.39152C5.77045 1.59827 5.17385 1 3.38562 1C1.5966 1 1 1.59827 1 3.39152C1 5.18555 1.5966 5.78303 3.38562 5.78303C5.17385 5.78303 5.77045 5.18555 5.77045 3.39152Z" stroke="#1E334A" stroke-width="1.5" stroke-linecap="round" stroke-linejoin="round"/>
</svg>
