<svg width="9" height="11" viewBox="0 0 9 11" fill="none" xmlns="http://www.w3.org/2000/svg">
<path fill-rule="evenodd" clip-rule="evenodd" d="M2.27034 0.602214C3.6749 -0.213896 5.40134 -0.199632 6.79272 0.639579C8.17042 1.49588 9.00775 3.02413 8.99995 4.6681C8.96788 6.30128 8.07002 7.83648 6.9477 9.02326C6.29993 9.71132 5.57528 10.3197 4.78857 10.8361C4.70755 10.8829 4.6188 10.9143 4.5267 10.9286C4.43805 10.9249 4.35173 10.8987 4.27551 10.8524C3.07444 10.0766 2.02073 9.08622 1.16508 7.92902C0.449095 6.96306 0.0423231 5.79604 6.95697e-07 4.58644C-0.000928758 2.93932 0.865783 1.41832 2.27034 0.602214ZM3.08224 5.26794C3.31851 5.85041 3.87619 6.23035 4.49489 6.23035C4.90022 6.23326 5.28984 6.07091 5.57696 5.77947C5.86408 5.48802 6.02482 5.09171 6.02339 4.67883C6.02555 4.0486 5.65452 3.4792 5.08353 3.2365C4.51255 2.99379 3.85424 3.12565 3.41599 3.57051C2.97773 4.01537 2.84598 4.68548 3.08224 5.26794Z" fill="#AAAAAA"/>
</svg>
