<svg width="32" height="32" viewBox="0 0 32 32" fill="none" xmlns="http://www.w3.org/2000/svg">
<path d="M10 18C10.5304 18 11.0391 17.7893 11.4142 17.4142C11.7893 17.0391 12 16.5304 12 16C12 15.4696 11.7893 14.9609 11.4142 14.5858C11.0391 14.2107 10.5304 14 10 14C9.46957 14 8.96086 14.2107 8.58579 14.5858C8.21071 14.9609 8 15.4696 8 16C8 16.5304 8.21071 17.0391 8.58579 17.4142C8.96086 17.7893 9.46957 18 10 18ZM16 18C16.5304 18 17.0391 17.7893 17.4142 17.4142C17.7893 17.0391 18 16.5304 18 16C18 15.4696 17.7893 14.9609 17.4142 14.5858C17.0391 14.2107 16.5304 14 16 14C15.4696 14 14.9609 14.2107 14.5858 14.5858C14.2107 14.9609 14 15.4696 14 16C14 16.5304 14.2107 17.0391 14.5858 17.4142C14.9609 17.7893 15.4696 18 16 18ZM24 16C24 16.5304 23.7893 17.0391 23.4142 17.4142C23.0391 17.7893 22.5304 18 22 18C21.4696 18 20.9609 17.7893 20.5858 17.4142C20.2107 17.0391 20 16.5304 20 16C20 15.4696 20.2107 14.9609 20.5858 14.5858C20.9609 14.2107 21.4696 14 22 14C22.5304 14 23.0391 14.2107 23.4142 14.5858C23.7893 14.9609 24 15.4696 24 16ZM30 16C30 23.732 23.732 30 16 30C8.268 30 2 23.732 2 16C2 8.268 8.268 2 16 2C23.732 2 30 8.268 30 16ZM28 16C28 9.373 22.627 4 16 4C9.373 4 4 9.373 4 16C4 22.627 9.373 28 16 28C22.627 28 28 22.627 28 16Z" fill="#0188A4"/>
</svg>
