<svg width="35" height="32" viewBox="0 0 35 32" fill="none" xmlns="http://www.w3.org/2000/svg">
<path d="M5.74126 23.127L5.74137 23.1273C6.19814 24.4183 7.66201 25.3702 9.37464 25.3702H9.45464H10.2558L10.4306 26.1521C10.5626 26.7428 10.9173 27.2925 11.4585 27.6973C12.0011 28.1032 12.6921 28.3328 13.4154 28.3329L5.74126 23.127ZM5.74126 23.127C5.35404 22.0337 5.52 21.0466 5.9933 20.2687L6.51725 19.4075L5.65193 18.8905C4.57186 18.2451 3.90918 17.173 3.90918 15.9995L3.90918 15.9989C3.90863 15.2051 4.21686 14.423 4.80155 13.7961C5.38822 13.1671 6.21542 12.7371 7.14153 12.6041L8.93794 12.346L7.76019 10.9653C7.38684 10.5275 7.17784 10.007 7.14611 9.47551C7.11441 8.94438 7.26012 8.40999 7.57556 7.94286C7.89202 7.4742 8.36747 7.09209 8.94884 6.86199C9.53064 6.63172 10.1803 6.56929 10.8067 6.68649L11.9906 6.90799V5.70355V5.63021C11.9906 4.90451 12.408 4.216 13.1087 3.90866L13.1155 3.90568L13.1222 3.9026C13.5968 3.68598 14.1421 3.6156 14.6711 3.7073C14.7871 3.73226 14.8751 3.78918 14.9291 3.85117C14.9827 3.91266 15.0006 3.97482 15.0001 4.02593L15.0001 4.02593V4.03555V27.7395H15M5.74126 23.127L15 27.7395M15 27.7395L15.0002 27.7529M15 27.7395L15.0002 27.7529M15.0002 27.7529C15.0007 27.793 14.9898 27.8385 14.9599 27.8855C14.9302 27.932 14.8808 27.981 14.8083 28.0188M15.0002 27.7529L14.8083 28.0188M25.9713 12.346L27.1491 10.9653C27.5224 10.5275 27.7314 10.007 27.7632 9.47551C27.7949 8.94438 27.6492 8.40999 27.3337 7.94286C27.0172 7.4742 26.5418 7.09209 25.9604 6.86199C25.3786 6.63172 24.729 6.56929 24.1025 6.68649L22.9186 6.90799V5.70355V5.63021C22.9186 4.90648 22.5004 4.21625 21.7991 3.90866L21.7921 3.90559L21.7852 3.90242C21.3114 3.68593 20.7669 3.61557 20.2387 3.70721C20.1227 3.7323 20.0346 3.7893 19.9805 3.85141C19.9267 3.91307 19.9087 3.97546 19.9091 4.02682L19.9092 4.03555H19.9092V27.7382C19.9092 27.8408 19.9685 27.9531 20.0932 28.013L20.0943 28.0136C20.5138 28.216 20.9853 28.3328 21.4937 28.3329L25.9713 12.346ZM25.9713 12.346L27.7677 12.6041M25.9713 12.346L27.7677 12.6041M27.7677 12.6041C28.6939 12.7371 29.5211 13.1671 30.1077 13.7961C30.6924 14.4229 31.0006 15.205 31.0001 15.9986L27.7677 12.6041ZM24.6531 25.3689H25.4546H25.5361C27.2474 25.3689 28.7126 24.4169 29.1694 23.126L29.1695 23.1257C29.5567 22.0324 29.3907 21.0452 28.9174 20.2673L28.3914 19.4028L29.2621 18.8871C29.8076 18.5641 30.2464 18.1268 30.5464 17.6223C30.8459 17.1186 30.9995 16.5608 31.0001 15.9989L24.6531 25.3689ZM24.6531 25.3689L24.4786 26.1511M24.6531 25.3689L24.4786 26.1511M24.4786 26.1511C24.3468 26.742 23.9922 27.2919 23.451 27.6969C22.9084 28.103 22.2173 28.3327 21.4939 28.3329L24.4786 26.1511ZM14.8083 28.0188C14.3905 28.2177 13.9204 28.3329 13.4155 28.3329L14.8083 28.0188Z" stroke="#0188A4" stroke-width="2"/>
</svg>
