<svg width="18" height="23" viewBox="0 0 18 23" fill="none" xmlns="http://www.w3.org/2000/svg">
<path fill-rule="evenodd" clip-rule="evenodd" d="M9.14936 0C5.18142 0 1.91825 3.1268 1.74896 7.09113L1.49721 12.9865C1.46421 13.7594 1.15925 14.4957 0.636157 15.0656C-0.775351 16.6033 0.315437 19.0852 2.40277 19.0852H6.24238C6.29871 19.8648 6.63348 20.6014 7.18987 21.1578C7.80197 21.7699 8.63216 22.1138 9.49781 22.1138C10.3635 22.1138 11.1936 21.7699 11.8058 21.1578C12.3621 20.6014 12.6969 19.8648 12.7532 19.0852H15.4687C17.5099 19.0852 18.697 16.7777 17.51 15.1171C17.1049 14.5503 16.8718 13.8786 16.8388 13.1827L16.5482 7.05615C16.3608 3.1062 13.1038 0 9.14936 0ZM10.7396 19.0852H8.25599C8.30293 19.3329 8.4233 19.5628 8.60408 19.7436C8.84111 19.9806 9.1626 20.1138 9.49781 20.1138C9.83302 20.1138 10.1545 19.9806 10.3915 19.7436C10.5723 19.5628 10.6927 19.3329 10.7396 19.0852ZM3.74714 7.17646C3.87072 4.28253 6.2528 2 9.14936 2C12.036 2 14.4136 4.2675 14.5504 7.15092L14.8411 13.2775C14.8923 14.3577 15.2541 15.4002 15.8829 16.28C16.1237 16.617 15.8829 17.0852 15.4687 17.0852H2.40277C2.05631 17.0852 1.87525 16.6733 2.10954 16.418C2.95145 15.5008 3.44228 14.3157 3.49539 13.0718L3.74714 7.17646Z" fill="white"/>
</svg>
