<svg width="32" height="32" viewBox="0 0 32 32" fill="none" xmlns="http://www.w3.org/2000/svg">
<path d="M16.6867 3.53871C16.4977 3.37036 16.2534 3.27734 16.0003 3.27734C15.7472 3.27734 15.5029 3.37036 15.3139 3.53871C14.0477 4.66294 13.1174 6.11572 12.626 7.73614C12.1346 9.35655 12.1013 11.0814 12.5299 12.7195C10.4994 11.5211 8.14663 10.9833 5.79708 11.1803C5.65759 11.1918 5.52174 11.2307 5.39738 11.295C5.27301 11.3592 5.16258 11.4474 5.07245 11.5544C4.98232 11.6615 4.91427 11.7854 4.87223 11.9189C4.83019 12.0524 4.81498 12.1929 4.82748 12.3323C5.02588 14.5163 6.04988 16.6843 7.46908 18.3643C6.91211 18.3288 6.35328 18.3341 5.79708 18.3803C5.65759 18.3918 5.52174 18.4307 5.39738 18.495C5.27301 18.5592 5.16258 18.6474 5.07245 18.7544C4.98232 18.8615 4.91427 18.9854 4.87223 19.1189C4.83019 19.2524 4.81498 19.3929 4.82748 19.5323C5.05745 22.0643 6.22577 24.4189 8.10298 26.1336C9.98018 27.8483 12.4306 28.7992 14.9731 28.7995H17.0275C19.5697 28.7992 22.0199 27.8485 23.8971 26.1342C25.7743 24.4198 26.9427 22.0656 27.1731 19.5339C27.1858 19.3944 27.1708 19.2537 27.1288 19.12C27.0869 18.9863 27.0189 18.8623 26.9287 18.755C26.8386 18.6478 26.7281 18.5594 26.6036 18.4951C26.4791 18.4308 26.3431 18.3918 26.2035 18.3803C25.6473 18.3341 25.0885 18.3288 24.5315 18.3643C25.9507 16.6843 26.9747 14.5163 27.1731 12.3323C27.1854 12.1929 27.17 12.0525 27.1279 11.9191C27.0858 11.7857 27.0177 11.6619 26.9276 11.5549C26.8375 11.4478 26.7272 11.3596 26.6029 11.2954C26.4786 11.2311 26.3429 11.192 26.2035 11.1803C23.8539 10.9833 21.5012 11.5211 19.4707 12.7195C19.8992 11.0814 19.866 9.35655 19.3746 7.73614C18.8832 6.11572 17.9529 4.66294 16.6867 3.53871ZM16.0003 23.0843C14.632 21.1859 12.7143 19.7529 10.5059 18.9787C10.4878 18.9641 10.4691 18.9502 10.4499 18.9371C8.52988 17.6299 6.90428 15.1995 6.49308 12.7451C8.90077 12.6831 11.2469 13.5101 13.0835 15.0683C14.2995 16.0971 14.6323 17.0363 14.9331 17.8811C15.0419 18.1851 15.1459 18.4779 15.2851 18.7563C15.3516 18.889 15.4537 19.0006 15.58 19.0786C15.7063 19.1566 15.8518 19.1979 16.0003 19.1979C16.1487 19.1979 16.2942 19.1566 16.4205 19.0786C16.5469 19.0006 16.649 18.889 16.7155 18.7563C16.8563 18.4779 16.9603 18.1851 17.0675 17.8795C17.3683 17.0379 17.7027 16.0971 18.9171 15.0683C20.7538 13.5092 23.1006 12.6815 25.5091 12.7435C25.0963 15.1995 23.4723 17.6299 21.5507 18.9371C21.5314 18.9501 21.5127 18.964 21.4947 18.9787C19.2863 19.7528 17.3685 21.1858 16.0003 23.0843ZM14.9731 27.1995C12.9265 27.1991 10.9472 26.4679 9.39192 25.1376C7.83662 23.8073 6.80748 21.9653 6.48988 19.9435C8.27645 19.8981 10.0415 20.3417 11.5943 21.2263C13.1472 22.1108 14.4289 23.4028 15.3011 24.9627C15.3704 25.0874 15.4718 25.1912 15.5947 25.2635C15.7176 25.3358 15.8577 25.374 16.0003 25.374C16.1429 25.374 16.2829 25.3358 16.4059 25.2635C16.5288 25.1912 16.6302 25.0874 16.6995 24.9627C17.5716 23.4028 18.8534 22.1108 20.4062 21.2263C21.9591 20.3417 23.7241 19.8981 25.5107 19.9435C25.1931 21.9653 24.164 23.8073 22.6086 25.1376C21.0533 26.4679 19.0741 27.1991 17.0275 27.1995H14.9731ZM16.0003 15.7051C14.6114 14.2881 13.8334 12.3829 13.8334 10.3987C13.8334 8.41449 14.6114 6.50936 16.0003 5.09231C17.3892 6.50936 18.1672 8.41449 18.1672 10.3987C18.1672 12.3829 17.3892 14.2881 16.0003 15.7051Z" fill="#0188A4"/>
</svg>
