<svg width="32" height="32" viewBox="0 0 32 32" fill="none" xmlns="http://www.w3.org/2000/svg">
<path d="M16.0002 8.66667C21.0535 8.66667 25.5602 11.5067 27.7602 16C25.5602 20.4933 21.0668 23.3333 16.0002 23.3333C10.9335 23.3333 6.44016 20.4933 4.24016 16C6.44016 11.5067 10.9468 8.66667 16.0002 8.66667ZM16.0002 6C9.3335 6 3.64016 10.1467 1.3335 16C3.64016 21.8533 9.3335 26 16.0002 26C22.6668 26 28.3602 21.8533 30.6668 16C28.3602 10.1467 22.6668 6 16.0002 6ZM16.0002 12.6667C17.8402 12.6667 19.3335 14.16 19.3335 16C19.3335 17.84 17.8402 19.3333 16.0002 19.3333C14.1602 19.3333 12.6668 17.84 12.6668 16C12.6668 14.16 14.1602 12.6667 16.0002 12.6667ZM16.0002 10C12.6935 10 10.0002 12.6933 10.0002 16C10.0002 19.3067 12.6935 22 16.0002 22C19.3068 22 22.0002 19.3067 22.0002 16C22.0002 12.6933 19.3068 10 16.0002 10Z" fill="#0188A4"/>
</svg>
