<svg width="32" height="32" viewBox="0 0 32 32" fill="none" xmlns="http://www.w3.org/2000/svg">
<path d="M25.3337 10.666C26.0803 10.666 26.667 11.2393 26.667 11.9993C26.667 12.353 26.5265 12.6921 26.2765 12.9422C26.0264 13.1922 25.6873 13.3327 25.3337 13.3327C24.5737 13.3327 24.0003 12.7327 24.0003 11.9993C24.0003 11.2393 24.5737 10.666 25.3337 10.666ZM2.66699 2.66602V14.666C2.66699 18.6127 5.58699 21.9993 9.52033 22.546C10.347 26.5593 13.8937 29.3327 18.0003 29.3327C19.1384 29.3327 20.2654 29.1085 21.3169 28.673C22.3684 28.2374 23.3238 27.599 24.1286 26.7943C24.9334 25.9895 25.5717 25.0341 26.0073 23.9826C26.4428 22.9311 26.667 21.8041 26.667 20.666V15.746C28.2137 15.186 29.3337 13.7193 29.3337 11.9993C29.3337 10.9385 28.9122 9.92107 28.1621 9.17092C27.4119 8.42078 26.3945 7.99935 25.3337 7.99935C24.2728 7.99935 23.2554 8.42078 22.5052 9.17092C21.7551 9.92107 21.3337 10.9385 21.3337 11.9993C21.3337 13.7193 22.4537 15.1994 24.0003 15.746V20.546C24.0003 23.8793 21.3337 26.546 18.0003 26.546C15.3337 26.546 13.0937 24.9327 12.2937 22.5327C16.0003 21.7327 18.667 18.3993 18.667 14.666V2.66602H13.3337V6.66602H16.0003V14.666C16.0003 16.0805 15.4384 17.4371 14.4382 18.4373C13.438 19.4374 12.0815 19.9993 10.667 19.9993C9.2525 19.9993 7.89595 19.4374 6.89576 18.4373C5.89556 17.4371 5.33366 16.0805 5.33366 14.666V6.66602H8.00033V2.66602H2.66699Z" fill="#0188A4"/>
</svg>
