<svg width="57" height="63" viewBox="0 0 57 63" fill="none" xmlns="http://www.w3.org/2000/svg">
<path d="M26.9653 1.00239C23.1242 1.49762 20.0442 2.94706 17.3869 5.50773C11.5046 11.1726 10.8765 20.3645 15.9254 26.8507C20.7689 33.0833 29.6346 34.8468 36.447 30.9212C42.4622 27.4546 45.5664 20.7148 44.286 13.9386C43.0903 7.66981 38.0414 2.57262 31.7605 1.2802C30.5647 1.03863 27.9195 0.881607 26.9653 1.00239Z" fill="#CCCCCC"/>
<path d="M15.611 34.3875C10.2601 35.3297 5.35618 38.6513 2.30028 43.3982C1.66011 44.4007 0.875 46.1038 0.875 46.5024C0.875 47.2996 3.16994 50.5367 5.3441 52.7954C10.6466 58.3153 17.1933 61.6007 24.7303 62.5429C26.3006 62.7482 30.673 62.7361 32.2191 62.5429C38.3309 61.7578 43.7663 59.4749 48.4649 55.7184C49.9264 54.5589 52.789 51.5996 53.9244 50.0898C55.1927 48.3867 56.1952 46.7682 56.1952 46.3937C56.1952 46.0314 55.5188 44.5457 54.927 43.6277C52.8615 40.4027 49.9868 37.7696 46.7618 36.1631C44.4065 34.9915 41.4713 34.1822 39.9857 34.2909C39.4784 34.3271 39.1402 34.4479 38.657 34.7499C36.9177 35.8491 36.3621 36.151 35.3958 36.5738C32.9921 37.6246 30.5402 38.0836 27.9312 37.9749C24.5975 37.842 21.7952 36.9482 19.0051 35.1123C18.4011 34.7137 17.761 34.3634 17.5798 34.3151C17.3865 34.2788 17.157 34.2305 17.0604 34.2064C16.9638 34.1822 16.3115 34.2668 15.611 34.3875Z" fill="#CCCCCC"/>
</svg>
