<svg width="12" height="11" viewBox="0 0 12 11" fill="none" xmlns="http://www.w3.org/2000/svg">
<path fill-rule="evenodd" clip-rule="evenodd" d="M6 0.199219C5.44772 0.199219 5 0.646935 5 1.19922V4.56285H0.872727C0.390733 4.56285 0 4.95359 0 5.43558C0 5.91758 0.390733 6.30831 0.872727 6.30831H5V9.67195C5 10.2242 5.44772 10.6719 6 10.6719C6.55228 10.6719 7 10.2242 7 9.67194V6.30831H11.1273C11.6093 6.30831 12 5.91758 12 5.43558C12 4.95359 11.6093 4.56285 11.1273 4.56285H7V1.19922C7 0.646934 6.55228 0.199219 6 0.199219Z" fill="#0188A4"/>
</svg>
