<svg width="27" height="24" viewBox="0 0 27 24" fill="none" xmlns="http://www.w3.org/2000/svg">
<path d="M3.2972 1.41538C1.66609 2.47641 1.38574 3.07926 1.38574 5.5148C1.38574 7.32337 1.4622 7.75743 1.81901 7.97446C2.15033 8.16737 2.40519 8.16737 2.71102 7.97446C3.06783 7.75743 3.19526 7.25103 3.2972 5.73183C3.4756 3.17572 3.70498 2.98281 6.40651 2.81401C8.01213 2.71755 8.52185 2.59698 8.75123 2.25938C8.95512 1.97001 8.95512 1.72886 8.75123 1.41538C8.52185 1.10189 8.03762 0.981323 6.30456 0.933095C4.41859 0.884866 4.06178 0.933095 3.2972 1.41538Z" fill="white"/>
<path d="M18.3863 1.17147C18.004 1.53318 18.004 2.16015 18.3863 2.52186C18.5647 2.69066 19.4313 2.81124 20.5272 2.81124C23.2032 2.81124 23.5345 3.12472 23.662 5.8014C23.7384 7.75466 23.7639 7.87523 24.3501 8.01991C25.5224 8.30928 25.7773 7.77877 25.6754 5.43969C25.5989 3.10061 25.2421 2.42541 23.6874 1.41261C22.9738 0.978553 22.5151 0.882096 20.782 0.882096C19.4822 0.882096 18.5647 1.00267 18.3863 1.17147Z" fill="white"/>
<path d="M0.290556 11.7855C-0.117222 12.1714 -0.0917358 12.8225 0.341528 13.1601C0.570903 13.353 4.26639 13.4012 13.6198 13.3771C25.6238 13.3047 26.5922 13.2806 26.8471 12.8707C27.051 12.5813 27.051 12.3402 26.8471 12.0267C26.5922 11.6409 25.6238 11.6167 13.5943 11.5444C3.7057 11.4962 0.519931 11.5685 0.290556 11.7855Z" fill="white"/>
<path d="M1.5142 17.1609C1.31031 17.4021 1.23385 18.1737 1.28482 19.5482C1.38677 21.815 1.74357 22.4902 3.29823 23.503C4.06281 23.9853 4.41962 24.0335 6.30559 23.9853C8.03864 23.937 8.52288 23.8165 8.75225 23.503C8.95614 23.1895 8.95614 22.9484 8.75225 22.659C8.52288 22.3214 8.01316 22.2008 6.40753 22.1044C3.65503 21.9356 3.45114 21.7426 3.32371 19.1383C3.27274 18.0291 3.11982 17.0886 2.94142 16.9921C2.48267 16.7028 1.84552 16.7751 1.5142 17.1609Z" fill="white"/>
<path d="M24.0433 16.9921C23.8649 17.0886 23.712 18.0291 23.661 19.1383C23.5336 21.7426 23.3297 21.9356 20.5772 22.1044C18.9716 22.2008 18.4619 22.3214 18.2325 22.659C18.0286 22.9484 18.0286 23.1895 18.2325 23.503C18.4619 23.8165 18.9461 23.937 20.6792 23.9853C22.5651 24.0335 22.922 23.9853 23.6865 23.503C25.2412 22.4902 25.598 21.815 25.6999 19.5482C25.7509 18.1737 25.6745 17.4021 25.4706 17.1609C25.1392 16.7751 24.5021 16.7028 24.0433 16.9921Z" fill="white"/>
</svg>
