<svg width="82" height="82" viewBox="0 0 82 82" fill="none" xmlns="http://www.w3.org/2000/svg">
<circle cx="41" cy="41" r="34.5" fill="#0188A4" stroke="url(#paint0_linear_119_710)"/>
<circle cx="41" cy="41" r="40.25" stroke="url(#paint1_linear_119_710)" stroke-width="1.5"/>
<path d="M32.6995 31.4597C31.3643 32.3777 31.1348 32.8993 31.1348 35.0065C31.1348 36.5713 31.1974 36.9468 31.4894 37.1346C31.7607 37.3015 31.9693 37.3015 32.2197 37.1346C32.5118 36.9468 32.6161 36.5087 32.6995 35.1943C32.8456 32.9827 33.0333 32.8158 35.2449 32.6698C36.5593 32.5863 36.9766 32.482 37.1643 32.1899C37.3312 31.9396 37.3312 31.7309 37.1643 31.4597C36.9766 31.1885 36.5801 31.0842 35.1614 31.0424C33.6175 31.0007 33.3254 31.0424 32.6995 31.4597Z" fill="white"/>
<path d="M45.0511 31.2508C44.7382 31.5638 44.7382 32.1063 45.0511 32.4192C45.1972 32.5652 45.9065 32.6696 46.8037 32.6696C48.9943 32.6696 49.2656 32.9408 49.3699 35.2566C49.4325 36.9466 49.4533 37.0509 49.9332 37.1761C50.8929 37.4265 51.1015 36.9675 51.0181 34.9437C50.9555 32.9199 50.6634 32.3358 49.3907 31.4595C48.8066 31.0839 48.431 31.0005 47.0123 31.0005C45.9483 31.0005 45.1972 31.1048 45.0511 31.2508Z" fill="white"/>
<path d="M30.2379 40.4306C29.904 40.7644 29.9249 41.3277 30.2796 41.6198C30.4674 41.7867 33.4926 41.8284 41.1495 41.8075C50.9762 41.745 51.769 41.7241 51.9776 41.3694C52.1446 41.119 52.1446 40.9104 51.9776 40.6392C51.769 40.3054 50.9762 40.2845 41.1286 40.2219C33.0336 40.1802 30.4256 40.2428 30.2379 40.4306Z" fill="white"/>
<path d="M31.2394 45.0829C31.0724 45.2915 31.0099 45.9591 31.0516 47.1484C31.135 49.1095 31.4271 49.6937 32.6998 50.57C33.3257 50.9873 33.6178 51.029 35.1617 50.9873C36.5804 50.9455 36.9768 50.8412 37.1646 50.57C37.3315 50.2988 37.3315 50.0901 37.1646 49.8398C36.9768 49.5477 36.5596 49.4434 35.2451 49.3599C32.9919 49.2139 32.825 49.0469 32.7207 46.7937C32.6789 45.834 32.5538 45.0203 32.4077 44.9368C32.0322 44.6865 31.5106 44.7491 31.2394 45.0829Z" fill="white"/>
<path d="M49.6828 44.9368C49.5368 45.0203 49.4116 45.834 49.3699 46.7937C49.2656 49.0469 49.0987 49.2139 46.8454 49.3599C45.531 49.4434 45.1137 49.5477 44.926 49.8398C44.7591 50.0901 44.7591 50.2988 44.926 50.57C45.1137 50.8412 45.5101 50.9455 46.9289 50.9873C48.4728 51.029 48.7649 50.9873 49.3908 50.57C50.6634 49.6937 50.9555 49.1095 51.039 47.1484C51.0807 45.9591 51.0181 45.2915 50.8512 45.0829C50.58 44.7491 50.0584 44.6865 49.6828 44.9368Z" fill="white"/>
<defs>
<linearGradient id="paint0_linear_119_710" x1="41" y1="76" x2="41" y2="17.9512" gradientUnits="userSpaceOnUse">
<stop stop-color="#0188A4"/>
<stop offset="1" stop-color="white" stop-opacity="0"/>
</linearGradient>
<linearGradient id="paint1_linear_119_710" x1="41" y1="82" x2="41" y2="14" gradientUnits="userSpaceOnUse">
<stop stop-color="#0188A4"/>
<stop offset="1" stop-color="white" stop-opacity="0"/>
</linearGradient>
</defs>
</svg>
