<svg width="306" height="332" viewBox="0 0 306 332" fill="none" xmlns="http://www.w3.org/2000/svg">
<path d="M228.867 331H244.735C273.02 331 287.162 331 295.948 322.213C304.735 313.426 304.735 299.284 304.735 271V248.5M77.1319 331H61.2642C32.9799 331 18.8378 331 10.051 322.213C1.26416 313.426 1.26416 299.284 1.26416 271V248.5M77.1319 1H61.2641C32.9799 1 18.8378 1 10.051 9.7868C1.26416 18.5736 1.26416 32.7157 1.26416 61V83.5M228.867 1H244.735C273.02 1 287.162 1 295.948 9.7868C304.735 18.5736 304.735 32.7157 304.735 61V83.5" stroke="#0188A4" stroke-width="1.5"/>
</svg>
