<svg width="32" height="32" viewBox="0 0 32 32" fill="none" xmlns="http://www.w3.org/2000/svg">
<path d="M25.3333 6.66667V25.3333H6.66667V6.66667H25.3333ZM25.3333 4H6.66667C5.18667 4 4 5.18667 4 6.66667V25.3333C4 26.8133 5.18667 28 6.66667 28H25.3333C26.8133 28 28 26.8133 28 25.3333V6.66667C28 5.18667 26.8133 4 25.3333 4ZM16 8C16.7333 8 17.3333 8.6 17.3333 9.33333V10.6667H21.56C21.8 11.08 22 11.5333 22.2133 12H17.3333V13.3333H22.6667C22.8 13.7733 22.8933 14.2267 22.92 14.6667H17.3333V16H22.9333C22.88 16.4667 22.8667 16.92 22.8 17.3333H17.3333V18.6667H22.6667C22.6667 18.6667 22.5867 22.6667 20.6667 22.6667C18.8667 22.6667 19.3333 20.6267 17.3333 20V22.6667C17.3333 23.4 16.7333 24 16 24C15.2667 24 14.6667 23.4 14.6667 22.6667V20C12.6667 20.6267 13.1333 22.6667 11.3333 22.6667C9.41333 22.6667 9.33333 18.6667 9.33333 18.6667H14.6667V17.3333H9.2C9.13333 16.92 9.12 16.4667 9.06667 16H14.6667V14.6667H9.08C9.10667 14.2267 9.21333 13.7733 9.33333 13.3333H14.6667V12H9.78667C10 11.5333 10.2 11.08 10.44 10.6667H14.6667V9.33333C14.6667 8.6 15.2667 8 16 8Z" fill="#0188A4"/>
</svg>
