<svg width="21" height="19" viewBox="0 0 21 19" fill="none" xmlns="http://www.w3.org/2000/svg">
<path d="M16.28 13.7602L20.3843 17.5644L19.029 18.8206L14.9248 15.0164C13.449 16.1107 11.5775 16.7654 9.54199 16.7654C4.78099 16.7654 0.916992 13.1838 0.916992 8.77087C0.916992 4.35791 4.78099 0.776367 9.54199 0.776367C14.303 0.776367 18.167 4.35791 18.167 8.77087C18.167 10.6576 17.4607 12.3923 16.28 13.7602ZM14.3573 13.1011C15.5292 11.9816 16.2503 10.4547 16.2503 8.77087C16.2503 5.33546 13.2483 2.55292 9.54199 2.55292C5.83564 2.55292 2.83366 5.33546 2.83366 8.77087C2.83366 12.2063 5.83564 14.9888 9.54199 14.9888C11.3586 14.9888 13.006 14.3204 14.2137 13.2342L14.3573 13.1011Z" fill="#858585"/>
</svg>
