<svg width="15" height="14" viewBox="0 0 15 14" fill="none" xmlns="http://www.w3.org/2000/svg">
<path d="M9.79515 0.83319L14.3606 4.97646C14.4047 5.01649 14.4397 5.06443 14.4637 5.11745C14.4877 5.17047 14.5 5.22747 14.5 5.28506C14.5 5.34265 14.4877 5.39966 14.4637 5.45267C14.4397 5.50569 14.4047 5.55364 14.3606 5.59367L9.79515 9.73694C9.75343 9.77554 9.70398 9.80602 9.64965 9.82662C9.59533 9.84721 9.5372 9.85752 9.47862 9.85695C9.35754 9.85695 9.24141 9.81179 9.1558 9.73141C9.07018 9.65103 9.02208 9.54201 9.02208 9.42834L9.02208 7.29098C4.94366 7.44528 3.22707 9.58835 3.15402 9.67979C3.0959 9.7516 3.01569 9.80492 2.92423 9.83252C2.83278 9.86012 2.73449 9.86066 2.64269 9.83409C2.55113 9.80639 2.47122 9.75225 2.41437 9.67938C2.35753 9.60651 2.32666 9.51865 2.32616 9.42834C2.32616 4.84502 6.33762 3.43916 9.02208 3.29629L9.02208 1.14179C9.02228 1.0575 9.04895 0.975129 9.09875 0.904991C9.14856 0.834853 9.21929 0.78006 9.30209 0.747467C9.38407 0.714272 9.47471 0.704698 9.5625 0.719961C9.65029 0.735224 9.73127 0.774635 9.79515 0.83319ZM9.93516 6.85665L9.93516 8.40538L13.3866 5.28506L9.93516 2.15332L9.93516 3.71348C9.93358 3.82669 9.88498 3.93485 9.7997 4.01492C9.71442 4.09498 9.59921 4.14061 9.47862 4.14209C8.88816 4.14209 4.09145 4.26782 3.33664 8.30251C5.08733 7.02231 7.26075 6.359 9.47862 6.42803C9.59921 6.42951 9.71442 6.47515 9.7997 6.55521C9.88498 6.63527 9.93358 6.74343 9.93516 6.85665ZM12.5058 9.98439C12.5909 9.90429 12.706 9.85857 12.8266 9.85695C12.9472 9.85843 13.0624 9.90406 13.1477 9.98412C13.2329 10.0642 13.2815 10.1723 13.2831 10.2856L13.2831 10.5713C13.2831 11.2913 12.9785 11.9817 12.4362 12.4908C11.894 12.9999 11.1586 13.2859 10.3917 13.2859L3.39142 13.2859C2.62457 13.2859 1.88912 12.9999 1.34688 12.4908C0.804631 11.9817 0.5 11.2913 0.5 10.5713L0.5 3.99922C0.5 3.27927 0.804631 2.58882 1.34688 2.07974C1.88912 1.57066 2.62457 1.28466 3.39142 1.28466L6.13066 1.28466C6.25174 1.28466 6.36786 1.32982 6.45348 1.4102C6.5391 1.49058 6.5872 1.5996 6.5872 1.71328C6.5872 1.82695 6.5391 1.93597 6.45348 2.01635C6.36786 2.09673 6.25174 2.14189 6.13066 2.14189L3.39142 2.14189C2.86723 2.1434 2.36496 2.33957 1.9943 2.68756C1.62363 3.03555 1.41469 3.50709 1.41308 3.99922L1.41308 10.5713C1.41469 11.0634 1.62363 11.535 1.9943 11.883C2.36496 12.231 2.86723 12.4271 3.39142 12.4286L10.3917 12.4286C10.9159 12.4271 11.4182 12.231 11.7888 11.883C12.1595 11.535 12.3684 11.0634 12.37 10.5713L12.37 10.2856C12.3718 10.1724 12.4205 10.0643 12.5058 9.98439Z" fill="#4F4F4F"/>
</svg>
