<svg id="Icons" enable-background="new 0 0 30 30" height="512" viewBox="0 0 30 30" width="512" xmlns="http://www.w3.org/2000/svg"><path d="m23 12c3.30859 0 6-2.69141 6-6s-2.69141-6-6-6-6 2.69141-6 6c0 .71118.13086 1.39075.35895 2.02429l-5.69586 3.20782c-1.10083-1.3598-2.78113-2.23211-4.66309-2.23211-3.30859 0-6 2.69141-6 6s2.69141 6 6 6c1.88196 0 3.56226-.87231 4.66309-2.23212l5.69586 3.20782c-.22809.63355-.35895 1.31312-.35895 2.0243 0 3.30859 2.69141 6 6 6s6-2.69141 6-6-2.69141-6-6-6c-1.88196 0-3.56226.87231-4.66309 2.23212l-5.69586-3.20782c.22809-.63355.35895-1.31312.35895-2.0243s-.13086-1.39075-.35895-2.02429l5.69586-3.20782c1.10083 1.3598 2.78113 2.23211 4.66309 2.23211zm0 8c2.20605 0 4 1.79395 4 4s-1.79395 4-4 4-4-1.79395-4-4 1.79395-4 4-4zm-16-1c-2.20605 0-4-1.79395-4-4s1.79395-4 4-4 4 1.79395 4 4-1.79395 4-4 4zm16-17c2.20605 0 4 1.79395 4 4s-1.79395 4-4 4-4-1.79395-4-4 1.79395-4 4-4z" fill="rgb(0,0,0)"/></svg>