<svg width="18" height="16" viewBox="0 0 18 16" fill="none" xmlns="http://www.w3.org/2000/svg">
<path d="M13.9322 9.93398C13.7164 10.1432 13.6172 10.4457 13.6664 10.7423L14.4072 14.8423C14.4697 15.1898 14.3231 15.5415 14.0322 15.7423C13.7472 15.9507 13.3681 15.9757 13.0572 15.809L9.3664 13.884C9.23807 13.8157 9.09557 13.779 8.94973 13.7748H8.7239C8.64557 13.7865 8.5689 13.8115 8.4989 13.8498L4.80723 15.784C4.62473 15.8757 4.41807 15.9082 4.21557 15.8757C3.72223 15.7823 3.39307 15.3123 3.4739 14.8165L4.21557 10.7165C4.26473 10.4173 4.16557 10.1132 3.94973 9.90065L0.940567 6.98398C0.6889 6.73982 0.6014 6.37315 0.7164 6.04232C0.828067 5.71232 1.11307 5.47148 1.45723 5.41732L5.5989 4.81648C5.9139 4.78398 6.19057 4.59232 6.33223 4.30898L8.15723 0.567318C8.20057 0.483984 8.2564 0.407318 8.3239 0.342318L8.3989 0.283984C8.43807 0.240651 8.48307 0.204818 8.53307 0.175651L8.6239 0.142318L8.76557 0.0839844H9.1164C9.42973 0.116484 9.70557 0.303984 9.84973 0.583984L11.6989 4.30898C11.8322 4.58148 12.0914 4.77065 12.3906 4.81648L16.5322 5.41732C16.8822 5.46732 17.1747 5.70898 17.2906 6.04232C17.3997 6.37648 17.3056 6.74315 17.0489 6.98398L13.9322 9.93398Z" fill="#FFA23A"/>
</svg>
