<svg width="181" height="165" viewBox="0 0 181 165" fill="none" xmlns="http://www.w3.org/2000/svg">
<path d="M83.3384 94.0344L72.5437 88.7099L72.9353 87.966L82.4792 92.6714L83.3384 94.0344Z" fill="white"/>
<path d="M132.852 126.594C134.753 127.103 136.706 125.976 137.215 124.075C137.725 122.175 136.597 120.221 134.696 119.712C132.796 119.203 130.843 120.331 130.333 122.231C129.824 124.132 130.952 126.085 132.852 126.594Z" fill="#FFE9A1"/>
<path d="M112.319 26.2541C113.677 26.6178 115.072 25.8123 115.436 24.4548C115.8 23.0973 114.994 21.702 113.637 21.3383C112.279 20.9746 110.884 21.7801 110.52 23.1376C110.156 24.4951 110.962 25.8904 112.319 26.2541Z" fill="#FF6584"/>
<path d="M38.3204 88.092C39.6779 88.4557 41.0732 87.6502 41.4369 86.2927C41.8006 84.9352 40.9951 83.5399 39.6376 83.1762C38.2801 82.8124 36.8848 83.618 36.5211 84.9755C36.1574 86.333 36.9629 87.7283 38.3204 88.092Z" fill="#FF6584"/>
<path d="M126.587 102.786C127.944 103.15 129.339 102.344 129.703 100.987C130.067 99.6296 129.261 98.2342 127.904 97.8705C126.546 97.5068 125.151 98.3124 124.787 99.6698C124.423 101.027 125.229 102.423 126.587 102.786Z" fill="#FFE9A1"/>
<path d="M42.9088 116.193C44.2663 116.556 45.6616 115.751 46.0253 114.393C46.389 113.036 45.5834 111.64 44.226 111.277C42.8685 110.913 41.4732 111.719 41.1095 113.076C40.7457 114.434 41.5513 115.829 42.9088 116.193Z" fill="#FFE9A1"/>
<path d="M118.735 143.886C120.092 144.25 121.488 143.444 121.851 142.087C122.215 140.729 121.41 139.334 120.052 138.97C118.695 138.606 117.299 139.412 116.936 140.769C116.572 142.127 117.377 143.522 118.735 143.886Z" fill="#E6E6E6"/>
<path d="M120.551 50.5891C121.909 50.9528 123.304 50.1472 123.668 48.7898C124.032 47.4323 123.226 46.037 121.869 45.6732C120.511 45.3095 119.116 46.1151 118.752 47.4726C118.388 48.83 119.194 50.2253 120.551 50.5891Z" fill="#CCCCCC"/>
<path d="M20.4092 52.7217C22.9394 53.5735 25.2318 55.0128 27.0984 56.9215C28.965 58.8303 30.3527 61.1543 31.1477 63.7029C31.3686 64.4242 31.6911 65.2383 31.2199 65.927C31.0486 66.1936 30.7919 66.3941 30.4918 66.4959C30.1917 66.5977 29.8659 66.5947 29.5678 66.4874C29.2094 66.3036 28.9215 66.0071 28.7483 65.6434C28.5752 65.2798 28.5266 64.8693 28.6098 64.4753C28.6931 64.0813 28.9037 63.7256 29.2091 63.4631C29.5146 63.2006 29.8979 63.0459 30.3 63.0229C32.289 62.7397 33.7746 64.399 34.977 65.7277C37.7167 68.7553 40.8422 71.667 44.7914 72.9865C48.4452 74.2074 52.8185 73.8183 55.7476 71.1508C56.2601 70.6841 55.5022 69.9229 54.9922 70.3873C52.0873 73.0327 47.6378 73.0702 44.1686 71.6114C42.1131 70.6977 40.2293 69.4388 38.5986 67.8893C37.7464 67.1103 36.9389 66.2836 36.1586 65.4329C35.4308 64.5685 34.6278 63.7703 33.7589 63.0479C32.2877 61.9258 30.0849 61.3925 28.5112 62.6466C27.043 63.8166 27.2249 66.4682 28.9169 67.3611C29.2913 67.5449 29.7055 67.633 30.1223 67.6174C30.5391 67.6017 30.9455 67.4829 31.3051 67.2716C31.6647 67.0603 31.9662 66.763 32.1827 66.4065C32.3991 66.0499 32.5237 65.6452 32.5453 65.2287C32.5956 64.3215 32.1741 63.3076 31.8615 62.4713C30.9243 59.9521 29.4338 57.6752 27.4998 55.8083C25.5659 53.9415 23.2378 52.5323 20.687 51.6845C20.0287 51.4727 19.7525 52.5105 20.4091 52.7217L20.4092 52.7217Z" fill="#CCCCCC"/>
<path d="M157.363 123.071C155.935 121.499 154.901 119.61 154.345 117.561C153.788 115.512 153.726 113.36 154.161 111.282C154.287 110.695 154.379 110.005 154.973 109.709C155.196 109.591 155.452 109.551 155.699 109.597C155.947 109.642 156.172 109.77 156.338 109.961C156.516 110.227 156.601 110.545 156.58 110.864C156.559 111.184 156.434 111.488 156.223 111.729C156.013 111.971 155.729 112.136 155.415 112.2C155.101 112.264 154.775 112.223 154.486 112.083C152.995 111.509 152.607 109.78 152.287 108.391C151.558 105.227 150.516 101.993 148.284 99.5459C146.22 97.2817 143.032 95.8567 139.964 96.5739C139.427 96.6994 139.658 97.5218 140.192 97.3969C143.235 96.6857 146.34 98.3844 148.184 100.742C149.257 102.174 150.078 103.778 150.609 105.486C150.899 106.358 151.14 107.245 151.352 108.138C151.522 109.021 151.77 109.886 152.094 110.725C152.681 112.074 154.004 113.299 155.583 113.038C155.94 112.959 156.274 112.798 156.558 112.568C156.842 112.338 157.068 112.044 157.218 111.71C157.369 111.377 157.439 111.013 157.423 110.648C157.407 110.282 157.307 109.926 157.129 109.606C156.94 109.333 156.686 109.112 156.391 108.961C156.095 108.81 155.767 108.735 155.435 108.743C155.104 108.75 154.779 108.839 154.49 109.003C154.202 109.167 153.959 109.4 153.782 109.681C153.444 110.362 153.243 111.102 153.188 111.861C152.863 113.974 153.015 116.133 153.635 118.179C154.254 120.225 155.325 122.106 156.767 123.684C157.143 124.086 157.737 123.472 157.363 123.071L157.363 123.071Z" fill="#CCCCCC"/>
<path d="M90.7818 32.2889C88.7693 31.6115 86.9461 30.4668 85.4615 28.9486C83.9769 27.4305 82.8733 25.5821 82.2409 23.5551C82.0652 22.9814 81.8087 22.3339 82.1835 21.7862C82.3198 21.5741 82.5239 21.4146 82.7626 21.3336C83.0013 21.2527 83.2604 21.2551 83.4975 21.3404C83.7825 21.4866 84.0115 21.7225 84.1492 22.0117C84.2869 22.3009 84.3256 22.6274 84.2594 22.9407C84.1932 23.2541 84.0257 23.537 83.7827 23.7458C83.5398 23.9546 83.2349 24.0776 82.9152 24.0959C81.3332 24.3211 80.1516 23.0014 79.1953 21.9446C77.0163 19.5366 74.5304 17.2209 71.3894 16.1714C68.4833 15.2004 65.005 15.5098 62.6754 17.6314C62.2678 18.0026 62.8706 18.608 63.2762 18.2386C65.5866 16.1346 69.1255 16.1048 71.8847 17.265C73.5195 17.9918 75.0179 18.993 76.3148 20.2254C76.9927 20.845 77.6349 21.5025 78.2554 22.1791C78.8343 22.8666 79.473 23.5014 80.164 24.076C81.3342 24.9685 83.0861 25.3927 84.3378 24.3952C84.6116 24.1527 84.8248 23.8495 84.9605 23.5099C85.0962 23.1703 85.1505 22.8036 85.1191 22.4392C85.0878 22.0749 84.9716 21.7229 84.7799 21.4114C84.5882 21.1 84.3263 20.8377 84.0151 20.6455C83.7174 20.4993 83.3879 20.4293 83.0564 20.4417C82.7249 20.4541 82.4017 20.5486 82.1157 20.7167C81.8297 20.8848 81.5898 21.1212 81.4177 21.4048C81.2456 21.6883 81.1465 22.0102 81.1293 22.3415C81.1663 23.1009 81.351 23.8459 81.6732 24.5346C82.4186 26.5383 83.6041 28.3492 85.1422 29.834C86.6804 31.3188 88.532 32.4396 90.5607 33.1139C91.0844 33.2823 91.3041 32.4569 90.7818 32.2889L90.7818 32.2889Z" fill="#CCCCCC"/>
<path d="M85.6513 58.9252L83.1934 58.2666L81.0294 66.3426L83.4873 67.0012L85.6513 58.9252Z" fill="#CCCCCC"/>
<path d="M47.42 42.6411L49.5859 41.3906L45.4772 34.2741L43.3113 35.5246L47.42 42.6411Z" fill="#B3B3B3"/>
<path d="M111.98 78.13L113.231 80.2959L120.347 76.1872L119.097 74.0213L111.98 78.13Z" fill="#B3B3B3"/>
<path d="M23.4717 129.231L24.7222 131.396L31.8387 127.288L30.5882 125.122L23.4717 129.231Z" fill="#FF6584"/>
<circle cx="90" cy="101" r="40" fill="url(#paint0_linear_146_957)"/>
<path d="M88.1249 104.706L98.4158 94L100 95.6468L88.1249 108L81 100.588L82.5831 98.9415L88.1249 104.706Z" fill="white"/>
<defs>
<linearGradient id="paint0_linear_146_957" x1="130" y1="109.5" x2="53.5" y2="84.5" gradientUnits="userSpaceOnUse">
<stop stop-color="#0188A4" stop-opacity="0.61"/>
<stop offset="1" stop-color="#0188A4"/>
</linearGradient>
</defs>
</svg>
