<svg width="13" height="14" viewBox="0 0 13 14" fill="none" xmlns="http://www.w3.org/2000/svg">
<path fill-rule="evenodd" clip-rule="evenodd" d="M6.5 13.25C3.05 13.25 0.25 10.4563 0.25 7C0.25 3.55 3.05 0.75 6.5 0.75C9.95625 0.75 12.75 3.55 12.75 7C12.75 10.4563 9.95625 13.25 6.5 13.25ZM8.49375 9.31875C8.56875 9.3625 8.65 9.3875 8.7375 9.3875C8.89375 9.3875 9.05 9.30625 9.1375 9.15625C9.26875 8.9375 9.2 8.65 8.975 8.5125L6.75 7.1875V4.3C6.75 4.0375 6.5375 3.83125 6.28125 3.83125C6.025 3.83125 5.8125 4.0375 5.8125 4.3V7.45625C5.8125 7.61875 5.9 7.76875 6.04375 7.85625L8.49375 9.31875Z" fill="#0188A4"/>
</svg>
